<svg width="18" height="22" viewBox="0 0 18 22" fill="none" xmlns="http://www.w3.org/2000/svg">
<path fill-rule="evenodd" clip-rule="evenodd" d="M9 0.25C7.74022 0.25 6.53204 0.750445 5.64124 1.64124C4.75044 2.53204 4.24999 3.74022 4.24999 5C4.24999 6.25978 4.75044 7.46796 5.64124 8.35876C6.53204 9.24955 7.74022 9.75 9 9.75C10.2598 9.75 11.468 9.24955 12.3588 8.35876C13.2496 7.46796 13.75 6.25978 13.75 5C13.75 3.74022 13.2496 2.53204 12.3588 1.64124C11.468 0.750445 10.2598 0.25 9 0.25ZM5.74999 5C5.74999 4.13805 6.0924 3.3114 6.7019 2.7019C7.31139 2.09241 8.13804 1.75 9 1.75C9.86195 1.75 10.6886 2.09241 11.2981 2.7019C11.9076 3.3114 12.25 4.13805 12.25 5C12.25 5.86195 11.9076 6.6886 11.2981 7.2981C10.6886 7.90759 9.86195 8.25 9 8.25C8.13804 8.25 7.31139 7.90759 6.7019 7.2981C6.0924 6.6886 5.74999 5.86195 5.74999 5ZM9 11.25C6.687 11.25 4.55499 11.776 2.97599 12.664C1.41999 13.54 0.249995 14.866 0.249995 16.5V16.602C0.248995 17.764 0.247995 19.222 1.52699 20.264C2.15599 20.776 3.03699 21.141 4.22699 21.381C5.419 21.623 6.974 21.75 9 21.75C11.026 21.75 12.58 21.623 13.774 21.381C14.964 21.141 15.844 20.776 16.474 20.264C17.753 19.222 17.751 17.764 17.75 16.602V16.5C17.75 14.866 16.58 13.54 15.025 12.664C13.445 11.776 11.314 11.25 9 11.25ZM1.74999 16.5C1.74999 15.649 2.37199 14.725 3.71099 13.972C5.02699 13.232 6.895 12.75 9.001 12.75C11.105 12.75 12.973 13.232 14.289 13.972C15.629 14.725 16.25 15.649 16.25 16.5C16.25 17.808 16.21 18.544 15.526 19.1C15.156 19.402 14.536 19.697 13.476 19.911C12.419 20.125 10.974 20.25 9 20.25C7.026 20.25 5.57999 20.125 4.52399 19.911C3.46399 19.697 2.84399 19.402 2.47399 19.101C1.78999 18.544 1.74999 17.808 1.74999 16.5Z" fill="black"/>
</svg>
